HIERARCHY
ROOT Hips
{
	OFFSET -3.958830 18.904000 13.208200
	CHANNELS 6 Xposition Yposition Zposition Zrotation Yrotation Xrotation 
	JOINT LHipJoint
	{
		OFFSET 0.000000 0.000000 0.000000
		CHANNELS 3 Zrotation Yrotation Xrotation
		JOINT LeftUpLeg
		{
			OFFSET 1.800000 -1.400000 0.085000
			CHANNELS 3 Zrotation Yrotation Xrotation
			JOINT LeftLeg
			{
				OFFSET 2.215000 -6.000000 0.000000
				CHANNELS 3 Zrotation Yrotation Xrotation
				JOINT LeftFoot
				{
					OFFSET 2.500000 -6.900000 0.000000
					CHANNELS 3 Zrotation Yrotation Xrotation
					JOINT LeftToeBase
					{
						OFFSET 0.200000 -0.500000 1.950000
						CHANNELS 3 Zrotation Yrotation Xrotation
						End Site
						{
							OFFSET 0.000000 0.000000 0.000000
						}
					}
				}
			}
		}
	}
	JOINT RHipJoint
	{
		OFFSET 0.000000 0.000000 0.000000
		CHANNELS 3 Zrotation Yrotation Xrotation
		JOINT RightUpLeg
		{
			OFFSET -1.800000 -1.400000 0.085000
			CHANNELS 3 Zrotation Yrotation Xrotation
			JOINT RightLeg
			{
				OFFSET -2.215000 -6.000000 0.000000
				CHANNELS 3 Zrotation Yrotation Xrotation
				JOINT RightFoot
				{
					OFFSET -2.500000 -6.900000 0.000000
					CHANNELS 3 Zrotation Yrotation Xrotation
					JOINT RightToeBase
					{
						OFFSET -0.200000 -0.500000 1.950000
						CHANNELS 3 Zrotation Yrotation Xrotation
						End Site
						{
							OFFSET 0.000000 0.000000 0.000000
						}
					}
				}
			}
		}
	}
	JOINT LowerBack
	{
		OFFSET 0.000000 0.000000 0.000000
		CHANNELS 3 Zrotation Yrotation Xrotation
		JOINT Spine
		{
			OFFSET -0.087000 1.940000 -0.288900
			CHANNELS 3 Zrotation Yrotation Xrotation
			JOINT Spine1
			{
				OFFSET 0.000000 1.950000 0.060000
				CHANNELS 3 Zrotation Yrotation Xrotation
				JOINT Neck
				{
					OFFSET 0.000000 0.000000 0.000000
					CHANNELS 3 Zrotation Yrotation Xrotation
					JOINT Neck1
					{
						OFFSET 0.000000 1.600000 0.340000
						CHANNELS 3 Zrotation Yrotation Xrotation
						JOINT Head
						{
							OFFSET 0.000000 1.667000 -0.240000
							CHANNELS 3 Zrotation Yrotation Xrotation
							End Site
							{
								OFFSET 0.000000 0.000000 0.000000
							}
						}
					}
				}
				JOINT LeftShoulder
				{
					OFFSET 0.000000 0.000000 0.000000
					CHANNELS 3 Zrotation Yrotation Xrotation
					JOINT LeftArm
					{
						OFFSET 2.700000 1.550000 -0.730000
						CHANNELS 3 Zrotation Yrotation Xrotation
						JOINT LeftForeArm
						{
							OFFSET 5.450000 0.000000 0.000000
							CHANNELS 3 Zrotation Yrotation Xrotation
							JOINT LeftHand
							{
								OFFSET 3.450000 0.000000 0.000000
								CHANNELS 3 Zrotation Yrotation Xrotation
								JOINT LeftHandIndex1
								{
									OFFSET 0.750000 0.000000 0.000000
									CHANNELS 3 Zrotation Yrotation Xrotation
									End Site
									{
										OFFSET 0.000000 0.000000 0.000000
									}
								}
							}
						}
					}
				}
				JOINT RightShoulder
				{
					OFFSET 0.000000 0.000000 0.000000
					CHANNELS 3 Zrotation Yrotation Xrotation
					JOINT RightArm
					{
						OFFSET -2.700000 1.550000 -0.730000
						CHANNELS 3 Zrotation Yrotation Xrotation
						JOINT RightForeArm
						{
							OFFSET -5.450000 0.000000 0.000000
							CHANNELS 3 Zrotation Yrotation Xrotation
							JOINT RightHand
							{
								OFFSET -3.450000 0.000000 0.000000
								CHANNELS 3 Zrotation Yrotation Xrotation
								JOINT RightHandIndex1
								{
									OFFSET -0.750000 0.000000 0.000000
									CHANNELS 3 Zrotation Yrotation Xrotation
									End Site
									{
										OFFSET 0.000000 0.000000 0.000000
									}
								}
							}
						}
					}
				}
			}
		}
	}
}
MOTION
Frames: 14
Frame Time: 0.016667
-0.646800 18.496700 -3.515440 7.904708 -1.118833 -1.965658 -15.029421 11.942341 4.962066 -8.419449 -9.003578 -34.148654 -6.791433 1.735377 -4.282274 -1.504104 2.594700 3.908247 -0.446680 -0.778170 -0.279880 18.471364 -10.872385 2.163880 -5.849081 0.297479 -10.872686 4.578286 -5.825306 16.354930 -0.107240 -3.619825 3.087285 -0.167260 0.901810 0.178210 -4.072919 -1.057067 -8.144243 11.209138 -3.418613 27.615570 -13.585647 2.025984 11.236996 3.221564 -5.902410 -14.238428 -14.884199 1.561955 37.312991 -5.567790 -2.333060 -14.500910 21.647285 -11.966573 -0.064677 36.613128 -13.243398 -2.238162 6.790345 -17.877741 0.249109 -4.191526 2.239694 0.887850 0.336550 -0.159790 -0.030440 -28.197970 19.606430 5.653706 -30.804761 7.702581 -5.130141 -12.870676 2.917124 -0.018172 2.290319 -0.373803 -0.848500 0.871660 0.750620 -0.154680 
-0.738940 18.316640 -3.458340 7.724310 -0.872118 -2.602555 -15.046747 11.766050 5.152319 -9.139680 -10.031987 -37.487547 -6.216508 2.039283 -0.485718 -1.471295 2.353451 3.955093 -0.387080 -0.670120 -0.281800 18.476469 -10.832163 2.159444 -6.300281 0.399171 -10.023015 6.017755 -6.301375 16.971816 -0.169037 -3.853695 2.997509 -0.141190 0.861160 0.227320 -4.072514 -0.953956 -8.208878 11.975231 -2.837181 28.871156 -12.851365 2.767393 10.334452 3.054522 -6.381789 -13.470698 -15.695700 1.252680 36.936430 -6.708740 -2.493430 -14.743890 20.189742 -11.806981 -0.441837 37.288310 -13.434407 -1.980264 4.712432 -22.543194 1.106808 -4.117055 2.466252 0.825850 0.339480 -0.122410 -0.005150 -26.496955 19.913628 5.807605 -31.443546 7.810775 -5.957957 -14.949295 3.518508 -0.260288 2.337808 -0.523391 -0.750360 0.809440 0.708100 -0.115160 
-0.846000 18.207310 -3.390670 6.170393 -1.433478 -4.295996 -14.981417 11.644889 5.129769 -8.453858 -9.740032 -39.358271 -5.738204 2.395073 3.260960 -1.323199 2.179124 3.958657 -0.258800 -0.443680 -0.272330 18.547800 -10.957987 2.234633 -4.465560 0.416042 -8.352045 5.964782 -6.656917 19.518805 -0.282344 -4.213821 2.887805 -0.071920 0.768340 0.246960 -4.261802 -0.542563 -8.208531 14.962183 -2.505965 31.165214 -12.236579 3.933411 9.763405 2.763830 -6.942639 -12.427622 -16.737330 2.354502 37.605740 -6.670690 -1.635390 -13.789170 16.587262 -12.433300 0.016676 36.093609 -12.986399 -2.220065 8.644733 -29.253966 0.640497 -4.053379 2.673636 0.703050 0.317570 -0.073270 0.058360 -22.556894 20.417273 5.848724 -31.747995 7.845935 -8.008364 -22.336563 7.521839 -1.308015 2.407357 -0.938554 -0.593880 0.700030 0.583080 -0.049700 
-0.954850 18.126820 -3.295110 3.779321 -3.509516 -4.038127 -14.913009 11.561810 5.083427 -6.232208 -8.713559 -41.820178 -6.380488 2.750828 4.955308 -1.286832 2.325491 3.872372 -0.274410 -0.487120 -0.279440 18.620345 -10.983752 2.396727 -1.151073 1.065774 -8.931345 5.074729 -6.673357 22.813255 -0.335030 -4.352242 2.839559 -0.118670 0.749980 0.257670 -4.442522 -0.247150 -8.262308 18.215115 -1.837599 31.323666 -12.244512 5.468211 7.410101 2.713258 -7.443597 -11.708466 -18.312862 3.866120 39.958817 -6.098990 -1.139010 -14.028210 11.105417 -13.589459 0.259489 35.289910 -11.639879 -1.745450 12.224782 -42.355818 -0.399126 -4.021728 2.668020 0.745700 0.284040 -0.055580 0.048100 -17.241030 21.749661 5.958223 -30.547679 8.495165 -9.237155 -29.322224 18.427175 -3.129498 2.228926 -1.072743 -0.585300 0.681250 0.599000 -0.056910 
-1.054490 18.112520 -3.159130 1.794528 -4.257392 -1.562103 -14.843000 11.366379 5.172208 -5.327679 -8.454433 -44.295106 -7.622347 2.836308 4.387602 -1.141063 2.230795 3.838443 -0.249190 -0.466260 -0.293790 18.729503 -10.846783 2.547280 2.127751 1.847162 -11.256718 4.229966 -6.358735 24.833726 -0.416734 -4.136495 2.895439 -0.208920 0.597340 0.231420 -4.705292 -0.067422 -8.366140 21.875357 -1.748424 28.627024 -14.195120 6.125250 4.425536 3.108836 -8.400874 -13.416202 -24.333839 7.703630 47.358754 -2.171850 -1.638480 -15.636490 5.692400 -15.739868 1.600032 31.791083 -10.742401 -1.414710 15.476709 -49.705381 -2.061980 -3.787111 2.586231 0.869890 0.090630 0.074460 0.057440 -12.429635 24.337939 6.946609 -25.510806 8.739437 -10.044299 -38.191740 30.641335 -6.695251 2.155077 -1.001846 -0.502330 0.614850 0.552610 -0.036060 
-1.199440 18.134840 -3.082960 1.143080 -7.702550 -0.361543 -14.796402 11.201578 5.101293 -3.095068 -7.412805 -45.319886 -8.753611 3.088860 4.176634 -1.214484 2.579801 3.702183 -0.282760 -0.523210 -0.391970 18.802602 -10.820330 2.699454 4.832607 2.815520 -13.249196 1.948787 -5.535848 27.506124 -0.367937 -4.227564 2.831489 -0.168460 0.739960 0.255200 -4.869686 0.308464 -8.364983 21.344419 0.614632 27.264466 -13.651648 7.877146 5.369492 1.643529 -9.109267 -12.546549 -25.113456 8.286597 44.688315 3.444590 -3.296510 -15.560940 4.349092 -15.231016 1.488655 20.667227 -14.854359 -2.377766 24.744574 -57.047674 -8.720808 -3.820999 2.464997 0.849070 0.159390 -0.030140 0.056560 -8.593928 24.034220 6.535100 -16.133729 10.889316 -11.143229 -52.738332 44.551169 -16.769095 1.787691 -0.835982 -0.566690 0.655490 0.648880 -0.018750 
-1.333740 18.177480 -3.029790 1.195798 -7.431077 -1.843842 -14.788103 11.246731 4.936456 -3.057004 -7.107741 -43.490752 -9.742700 3.359338 5.170178 -1.288226 2.813210 3.616321 -0.324650 -0.575760 -0.477500 18.806788 -10.796880 2.800358 5.295596 3.443983 -13.190888 3.259814 -6.309572 30.581283 -0.431625 -4.756533 2.644918 -0.155050 0.821670 0.279630 -4.883260 0.316983 -8.325391 19.851439 0.216715 28.829075 -13.576030 7.089878 6.652199 1.147598 -10.256355 -12.123106 -26.640895 8.180499 41.686872 4.928570 -4.568630 -17.994820 3.510188 -14.741410 1.924371 10.398182 -13.870333 -3.100878 27.611243 -67.281799 -14.862348 -3.825330 2.386449 0.863490 0.199400 -0.084670 0.044490 -6.771694 24.069879 6.203115 -6.704389 13.105361 -12.376508 -64.025033 57.324570 -29.517335 1.317639 -0.292083 -0.612950 0.693140 0.735280 -0.009820 
-1.453980 18.227430 -2.944870 0.074089 -6.859651 -1.335952 -14.806846 11.212074 4.823819 -2.953729 -6.740887 -43.892435 -9.278708 3.687320 6.962223 -1.093044 2.699901 3.689064 -0.272610 -0.443430 -0.453390 18.811780 -10.561829 3.099592 7.221853 5.327699 -15.899782 4.773848 -7.122147 35.470008 -0.609256 -5.304350 2.519176 -0.164280 0.761770 0.224190 -4.875726 0.254775 -8.450935 19.711982 -0.028016 28.857481 -14.494873 6.823851 6.517338 2.136337 -10.343277 -13.392046 -26.786178 9.085009 41.881871 3.447220 -3.173590 -17.656640 2.218252 -15.725950 4.151212 -1.044814 -12.163157 -3.342647 7.190583 -77.593430 -6.024205 -3.737048 2.650404 0.789610 0.160280 -0.031100 0.114990 -6.942707 25.337459 6.223763 6.737613 15.062610 -14.258726 -64.437401 72.229307 -39.814775 0.877929 0.618499 -0.523320 0.684240 0.599820 0.045040 
-1.604410 18.267040 -2.843070 -0.535055 -4.121652 -0.952680 -14.902303 11.280042 4.790471 -4.232573 -7.202310 -44.116488 -8.820327 4.042475 9.570937 -0.884006 2.597013 3.729118 -0.301990 -0.423520 -0.496890 18.748163 -10.119669 3.395160 8.133685 7.051373 -18.457696 9.090080 -9.228392 38.765256 -0.787702 -5.958528 2.357377 -0.240460 0.703340 0.159650 -4.662279 -0.385460 -8.620306 18.125390 -0.785061 29.620615 -13.737076 5.650360 4.658444 2.636039 -10.714874 -15.320291 -28.919431 10.914498 42.550947 4.297380 -2.627890 -15.662120 -2.996136 -15.958249 6.426384 -7.357369 -7.400117 -2.743259 -40.371362 -80.245453 30.047181 -3.762544 2.897078 0.741180 0.096540 0.003910 0.147390 -1.957457 26.263836 8.032266 16.708983 13.428563 -14.684254 -32.118768 86.221841 -29.048751 1.414049 -0.335904 -0.450580 0.639830 0.522950 0.100800 
-1.761620 18.297040 -2.765800 -0.933150 -2.943149 -2.279851 -14.992573 11.510908 4.552743 -5.022538 -6.872395 -42.548149 -7.260160 4.248872 12.318226 -0.828985 2.623187 3.718754 -0.335040 -0.479870 -0.487900 18.661048 -9.698566 3.794065 7.807282 9.650169 -20.409046 14.189620 -12.229539 43.418174 -1.113712 -7.129158 1.983562 -0.310730 0.651630 0.138730 -4.413490 -1.065062 -8.752151 15.330902 -1.426122 33.893364 -13.198067 4.966547 2.594576 3.349708 -10.774817 -16.782856 -30.260586 12.350487 42.689618 4.286080 -1.831890 -16.581360 -9.280355 -15.129033 7.124006 -13.163009 -1.862203 -3.747901 -74.646446 -77.535835 53.887910 -3.918154 2.638886 0.808740 0.027530 0.049020 0.131370 3.512625 25.924919 10.417289 20.574019 12.559227 -9.774927 44.857218 83.021375 32.328021 1.992435 -1.235890 -0.450630 0.630510 0.517560 0.087830 
-1.941450 18.288820 -2.701930 -1.767046 -1.710808 -4.404225 -15.025293 11.543724 4.259682 -4.307460 -6.368119 -41.123821 -6.138546 4.779599 16.667727 -0.861795 3.068732 3.533436 -0.325580 -0.515240 -0.419690 18.650603 -9.384405 4.219182 7.537071 12.338554 -21.997638 19.847017 -15.905882 47.543397 -1.502913 -8.510506 1.515699 -0.304460 0.617220 0.145150 -4.354268 -1.226047 -8.881426 13.371980 -1.764929 38.334995 -12.747151 4.773087 1.348258 3.252035 -10.634362 -16.300881 -29.335008 11.998079 42.687914 3.502360 -1.526610 -18.413080 -13.463462 -15.049747 6.807031 -19.444519 0.659236 -6.650013 -80.029859 -72.411036 51.987973 -3.877387 2.714085 0.888280 -0.003270 0.070630 0.086770 7.846937 25.785358 10.568861 28.141493 11.395013 -10.887704 50.294213 72.203367 29.017311 2.095017 -1.071637 -0.492560 0.646980 0.543030 0.032350 
-2.117870 18.234730 -2.656450 -2.170786 0.824857 -6.019260 -15.079941 11.450822 4.092270 -5.141014 -6.762351 -40.172430 -3.743656 4.819787 20.967922 -0.949532 3.466155 3.361617 -0.239390 -0.457940 -0.315980 18.643689 -9.040661 4.543217 5.792110 14.327534 -24.790058 27.106776 -20.415436 49.585916 -1.893178 -9.870695 1.043116 -0.212380 0.591720 0.195320 -4.276399 -1.391883 -8.989212 11.112014 -2.010982 42.020974 -11.538928 4.269141 1.220561 2.574501 -10.939863 -14.190535 -27.931608 10.841159 39.851627 1.071790 -1.301710 -20.879500 -16.753491 -13.555531 5.134613 -26.275138 -0.292107 -9.273784 -74.569117 -66.974424 42.078285 -3.820386 2.863147 0.922720 0.005850 0.084040 0.062840 11.975232 24.115935 9.588034 35.389121 10.362242 -12.801175 47.931063 63.529350 21.898877 2.084963 -1.057183 -0.513980 0.656630 0.551870 -0.018250 
-2.332010 18.143590 -2.601390 -2.461194 4.316884 -6.772508 -15.180010 11.214240 4.203028 -5.336739 -8.189243 -41.170054 -2.039279 5.293266 27.867310 -0.836383 4.369053 3.033487 -0.222930 -0.428210 -0.328670 18.621226 -8.546537 4.773004 3.551308 15.502331 -29.031443 34.638025 -25.207356 50.426584 -2.230545 -11.014088 0.732805 -0.174500 0.618280 0.162430 -4.106645 -1.767880 -9.180211 8.228030 -2.091855 45.646969 -9.508201 3.340675 -1.084029 1.583918 -11.953657 -12.787284 -29.100948 10.536421 36.493326 2.607950 -2.365960 -22.585150 -19.990967 -10.665638 4.012227 -34.203900 1.499382 -11.566801 -77.029160 -66.997259 42.492752 -3.825263 2.839201 0.926080 -0.007720 0.069330 0.081730 17.105392 21.672610 8.877520 42.064603 6.784686 -14.683392 48.804295 58.464915 19.151600 2.134409 -1.035069 -0.540880 0.712860 0.548370 -0.003490 
-2.531590 18.030290 -2.523850 -3.009957 6.865722 -6.588997 -15.228737 10.876573 4.312355 -4.416136 -9.435514 -42.543160 -1.102572 5.852651 33.672024 -0.717790 5.346920 2.674407 -0.198690 -0.411500 -0.338730 18.651701 -8.111363 4.997590 0.987080 16.385089 -33.977868 43.278115 -30.093050 49.744272 -2.533286 -11.920676 0.483474 -0.146570 0.625120 0.149350 -4.065320 -1.874524 -9.355306 6.953722 -2.205147 48.914607 -8.461623 2.490183 -5.532129 0.289442 -13.414908 -9.893358 -31.596389 10.150788 32.947507 4.396600 -4.280790 -26.147820 -23.456561 -3.405415 0.877473 -39.501977 1.997056 -11.134065 -80.318491 -63.867169 43.132301 -3.823474 2.852305 0.952800 -0.049060 0.064320 0.095550 22.516601 14.858309 6.450736 46.344331 3.304100 -14.411218 54.444392 53.625569 20.053294 2.206961 -1.040718 -0.558860 0.748970 0.553290 0.010070 
